<svg width="312" height="159" viewBox="0 0 312 159" fill="none" xmlns="http://www.w3.org/2000/svg">
<path d="M2.50702 158.482C1.78661 158.482 1.21029 158.252 0.720409 157.764C0.230531 157.275 0 156.672 0 155.983V123.241C0 122.494 0.230531 121.891 0.720409 121.432C1.21029 120.972 1.81543 120.742 2.50702 120.742H12.2181C14.6387 120.742 16.7999 121.288 18.673 122.351C20.5461 123.413 22.0157 124.878 23.0531 126.774C24.0905 128.669 24.638 130.823 24.638 133.293C24.638 135.649 24.1193 137.745 23.0531 139.583C22.0157 141.421 20.5461 142.857 18.673 143.891C16.7999 144.925 14.6387 145.442 12.2181 145.442H5.04286V156.04C5.04286 156.758 4.81233 157.333 4.35127 157.821C3.86139 158.252 3.25625 158.482 2.50702 158.482ZM5.04286 140.732H12.2181C13.7166 140.732 15.0133 140.416 16.1372 139.756C17.261 139.124 18.1543 138.233 18.8171 137.085C19.451 135.964 19.7968 134.672 19.7968 133.207C19.7968 131.656 19.4799 130.306 18.8171 129.129C18.1831 127.951 17.2898 127.032 16.1372 126.343C15.0133 125.654 13.6878 125.338 12.2181 125.338H5.04286V140.732Z" fill="white"/>
<path d="M40.8904 158.74C38.6715 158.74 36.6544 158.252 34.8966 157.304C33.1388 156.356 31.7556 154.949 30.7182 153.111C29.6808 151.273 29.1909 149.004 29.1909 146.333V134.442C29.1909 133.724 29.4215 133.15 29.8825 132.69C30.3436 132.231 30.9487 132.001 31.6403 132.001C32.3607 132.001 32.937 132.231 33.3981 132.69C33.8592 133.15 34.0897 133.753 34.0897 134.442V146.333C34.0897 148.142 34.4355 149.636 35.0983 150.813C35.7899 151.991 36.712 152.852 37.8646 153.427C39.0173 154.001 40.3428 154.26 41.7837 154.26C43.1668 154.26 44.406 153.972 45.501 153.427C46.596 152.881 47.4605 152.134 48.0944 151.215C48.7284 150.267 49.0742 149.233 49.0742 148.085H52.1287C52.1287 150.095 51.6389 151.876 50.6591 153.513C49.6793 155.121 48.325 156.385 46.6248 157.333C45.0111 158.281 43.0516 158.74 40.8904 158.74ZM51.61 158.482C50.8896 158.482 50.3133 158.252 49.8522 157.792C49.3912 157.333 49.1607 156.73 49.1607 156.04V134.471C49.1607 133.724 49.3912 133.121 49.8522 132.69C50.3133 132.231 50.9184 132.001 51.61 132.001C52.3593 132.001 52.9644 132.231 53.3967 132.69C53.8577 133.15 54.0882 133.753 54.0882 134.471V156.04C54.0882 156.758 53.8577 157.333 53.3967 157.792C52.9644 158.252 52.3593 158.482 51.61 158.482Z" fill="white"/>
<path d="M65.2692 158.482C64.4912 158.482 63.886 158.281 63.4826 157.878C63.0504 157.476 62.8486 156.873 62.8486 156.069V134.442C62.8486 133.667 63.0504 133.064 63.4826 132.662C63.9148 132.231 64.4912 132.03 65.2692 132.03C66.0761 132.03 66.6812 132.231 67.0846 132.633C67.4881 133.035 67.6898 133.638 67.6898 134.442V156.069C67.6898 156.844 67.4881 157.448 67.0846 157.85C66.6812 158.281 66.0761 158.482 65.2692 158.482ZM65.2116 141.938C65.2116 140.014 65.7015 138.262 66.6524 136.74C67.6033 135.218 68.9001 133.983 70.5138 133.092C72.1275 132.202 73.9141 131.742 75.8448 131.742C77.7755 131.742 79.2451 132.058 80.1961 132.69C81.147 133.322 81.5216 134.069 81.2911 134.93C81.2047 135.39 81.0029 135.735 80.7436 135.964C80.4554 136.194 80.1673 136.367 79.7926 136.424C79.4469 136.481 79.0434 136.481 78.64 136.367C76.5652 135.936 74.721 135.907 73.0496 136.28C71.4071 136.625 70.1104 137.286 69.1306 138.262C68.1797 139.239 67.6898 140.445 67.6898 141.938H65.2116Z" fill="white"/>
<path d="M88.8407 158.482C88.0627 158.482 87.4576 158.281 87.0541 157.878C86.6219 157.476 86.4202 156.873 86.4202 156.069V134.442C86.4202 133.667 86.6219 133.064 87.0541 132.662C87.4864 132.231 88.0627 132.03 88.8407 132.03C89.6476 132.03 90.2527 132.231 90.6562 132.633C91.0596 133.035 91.2613 133.638 91.2613 134.442V156.069C91.2613 156.844 91.0596 157.448 90.6562 157.85C90.2527 158.281 89.6476 158.482 88.8407 158.482ZM88.7831 141.938C88.7831 140.014 89.273 138.262 90.2239 136.74C91.1749 135.218 92.4716 133.983 94.0853 133.092C95.699 132.202 97.4856 131.742 99.4163 131.742C101.347 131.742 102.817 132.058 103.768 132.69C104.719 133.322 105.093 134.069 104.863 134.93C104.776 135.39 104.574 135.735 104.315 135.964C104.027 136.194 103.739 136.367 103.364 136.424C103.018 136.481 102.615 136.481 102.212 136.367C100.137 135.936 98.2925 135.907 96.6212 136.28C94.9786 136.625 93.6819 137.286 92.7021 138.262C91.7512 139.239 91.2613 140.445 91.2613 141.938H88.7831Z" fill="white"/>
<path d="M108.407 137.171C107.716 137.171 107.168 136.97 106.765 136.596C106.332 136.223 106.131 135.735 106.131 135.132C106.131 134.5 106.332 133.983 106.765 133.581C107.197 133.207 107.744 133.006 108.407 133.006H120.395C121.086 133.006 121.634 133.207 122.037 133.581C122.469 133.954 122.671 134.471 122.671 135.132C122.671 135.706 122.469 136.194 122.037 136.596C121.605 136.97 121.057 137.171 120.395 137.171H108.407ZM112.874 158.482C112.268 158.482 111.721 158.252 111.231 157.792C110.741 157.333 110.511 156.758 110.511 156.012V132.173C110.511 129.847 110.972 127.836 111.894 126.113C112.816 124.419 114.113 123.069 115.755 122.121C117.398 121.173 119.3 120.685 121.49 120.685C122.21 120.685 122.786 120.886 123.248 121.317C123.709 121.748 123.939 122.265 123.939 122.925C123.939 123.528 123.709 124.074 123.248 124.505C122.786 124.936 122.181 125.165 121.49 125.165C120.279 125.165 119.242 125.453 118.349 125.998C117.455 126.544 116.735 127.291 116.245 128.267C115.755 129.244 115.496 130.393 115.496 131.714V156.04C115.496 156.787 115.265 157.39 114.804 157.821C114.314 158.281 113.68 158.482 112.874 158.482Z" fill="white"/>
<path d="M140.278 158.683C137.598 158.683 135.206 158.108 133.131 156.959C131.057 155.811 129.414 154.231 128.233 152.22C127.051 150.21 126.475 147.884 126.475 145.27C126.475 142.628 127.022 140.301 128.146 138.291C129.27 136.28 130.797 134.701 132.786 133.552C134.745 132.403 137.022 131.829 139.586 131.829C142.122 131.829 144.283 132.374 146.099 133.494C147.914 134.615 149.297 136.137 150.248 138.09C151.199 140.043 151.689 142.283 151.689 144.839C151.689 145.442 151.487 145.959 151.055 146.361C150.623 146.763 150.104 146.965 149.441 146.965H129.875V143.087H149.297L147.28 144.466C147.251 142.857 146.934 141.421 146.301 140.129C145.695 138.865 144.802 137.86 143.678 137.113C142.554 136.367 141.171 135.993 139.557 135.993C137.713 135.993 136.128 136.395 134.832 137.199C133.535 138.004 132.526 139.124 131.835 140.502C131.143 141.91 130.826 143.489 130.826 145.27C130.826 147.051 131.23 148.63 132.036 150.009C132.843 151.388 133.967 152.479 135.379 153.312C136.791 154.116 138.434 154.518 140.278 154.518C141.286 154.518 142.295 154.346 143.361 153.972C144.399 153.599 145.263 153.168 145.897 152.68C146.387 152.335 146.906 152.134 147.482 152.134C148.058 152.106 148.548 152.278 148.952 152.651C149.499 153.139 149.787 153.656 149.816 154.26C149.845 154.834 149.586 155.351 149.038 155.753C147.943 156.615 146.56 157.333 144.946 157.878C143.332 158.424 141.776 158.683 140.278 158.683Z" fill="white"/>
<path d="M169.987 158.683C167.394 158.683 165.089 158.108 163.072 156.931C161.054 155.753 159.47 154.145 158.317 152.134C157.164 150.124 156.588 147.826 156.588 145.299C156.588 142.685 157.164 140.359 158.288 138.348C159.412 136.309 160.968 134.729 162.956 133.581C164.916 132.432 167.192 131.857 169.757 131.857C171.659 131.857 173.417 132.231 175.002 132.949C176.586 133.667 177.998 134.758 179.266 136.223C179.727 136.74 179.872 137.257 179.756 137.831C179.612 138.377 179.266 138.865 178.69 139.296C178.229 139.612 177.739 139.727 177.192 139.612C176.644 139.497 176.154 139.21 175.693 138.779C174.108 137.113 172.12 136.252 169.786 136.252C168.143 136.252 166.674 136.625 165.406 137.4C164.138 138.147 163.158 139.21 162.438 140.56C161.717 141.91 161.371 143.518 161.371 145.356C161.371 147.108 161.746 148.659 162.466 150.009C163.187 151.359 164.195 152.421 165.492 153.226C166.789 154.03 168.287 154.403 170.016 154.403C171.14 154.403 172.149 154.26 173.013 154.001C173.878 153.714 174.656 153.312 175.376 152.709C175.895 152.278 176.414 152.048 176.99 152.019C177.537 151.962 178.027 152.134 178.46 152.479C179.007 152.938 179.324 153.427 179.382 154.001C179.439 154.576 179.238 155.064 178.805 155.523C176.385 157.62 173.474 158.683 169.987 158.683Z" fill="white"/>
<path d="M185.98 137.171C185.289 137.171 184.741 136.97 184.338 136.596C183.906 136.223 183.704 135.735 183.704 135.132C183.704 134.5 183.906 133.983 184.338 133.581C184.77 133.207 185.318 133.006 185.98 133.006H197.19C197.882 133.006 198.429 133.207 198.832 133.581C199.265 133.954 199.466 134.471 199.466 135.132C199.466 135.706 199.265 136.194 198.832 136.596C198.4 136.97 197.853 137.171 197.19 137.171H185.98ZM196.758 158.482C195.144 158.482 193.674 158.079 192.378 157.247C191.081 156.414 190.072 155.294 189.323 153.886C188.574 152.479 188.199 150.871 188.199 149.09V126.027C188.199 125.309 188.43 124.735 188.891 124.275C189.352 123.816 189.928 123.586 190.649 123.586C191.369 123.586 191.945 123.816 192.406 124.275C192.867 124.735 193.098 125.309 193.098 126.027V149.09C193.098 150.382 193.444 151.474 194.164 152.335C194.885 153.197 195.749 153.628 196.786 153.628H198.429C199.005 153.628 199.495 153.858 199.899 154.317C200.302 154.777 200.504 155.351 200.504 156.069C200.504 156.787 200.244 157.361 199.697 157.821C199.149 158.281 198.487 158.51 197.622 158.51H196.758V158.482Z" fill="white"/>
<path d="M222.722 158.482C222.289 158.482 221.944 158.338 221.684 158.079C221.396 157.792 221.281 157.448 221.281 157.046V122.178C221.281 121.719 221.425 121.374 221.684 121.116C221.972 120.857 222.318 120.742 222.722 120.742H232.433C234.796 120.742 236.899 121.259 238.715 122.293C240.53 123.327 241.971 124.763 243.008 126.573C244.046 128.382 244.564 130.479 244.564 132.834C244.564 135.189 244.046 137.286 243.008 139.124C241.971 140.962 240.53 142.398 238.715 143.432C236.899 144.466 234.796 144.983 232.433 144.983H224.191V157.074C224.191 157.505 224.076 157.85 223.817 158.108C223.528 158.367 223.183 158.482 222.722 158.482ZM224.191 142.053H232.433C234.248 142.053 235.833 141.651 237.216 140.876C238.599 140.072 239.666 139.009 240.472 137.602C241.279 136.223 241.654 134.615 241.654 132.805C241.654 130.996 241.251 129.416 240.472 128.037C239.666 126.659 238.599 125.596 237.216 124.792C235.833 123.988 234.248 123.614 232.433 123.614H224.191V142.053Z" fill="white"/>
<path d="M262.286 158.798C259.693 158.798 257.388 158.223 255.313 157.046C253.267 155.868 251.653 154.26 250.472 152.22C249.29 150.181 248.714 147.884 248.714 145.327C248.714 142.743 249.29 140.445 250.472 138.377C251.653 136.338 253.267 134.729 255.313 133.552C257.359 132.374 259.693 131.8 262.286 131.8C264.88 131.8 267.185 132.374 269.231 133.552C271.277 134.729 272.891 136.338 274.072 138.377C275.254 140.416 275.83 142.743 275.83 145.327L274.62 147.252C274.62 149.435 274.072 151.416 273.006 153.14C271.911 154.891 270.47 156.27 268.626 157.275C266.753 158.281 264.649 158.798 262.286 158.798ZM262.286 156.069C264.332 156.069 266.148 155.581 267.733 154.633C269.346 153.685 270.585 152.393 271.508 150.756C272.43 149.119 272.891 147.309 272.891 145.27C272.891 143.202 272.43 141.364 271.508 139.727C270.585 138.09 269.318 136.797 267.733 135.85C266.119 134.902 264.304 134.414 262.286 134.414C260.269 134.414 258.483 134.902 256.84 135.85C255.226 136.797 253.958 138.09 253.008 139.727C252.057 141.364 251.596 143.202 251.596 145.27C251.596 147.309 252.057 149.119 253.008 150.756C253.958 152.393 255.226 153.685 256.84 154.633C258.454 155.61 260.269 156.069 262.286 156.069ZM274.36 158.482C273.928 158.482 273.582 158.338 273.323 158.08C273.035 157.792 272.92 157.448 272.92 157.046V148.2L273.842 145.299H275.83V157.046C275.83 157.476 275.686 157.821 275.455 158.08C275.167 158.367 274.821 158.482 274.36 158.482Z" fill="white"/>
<path d="M285.484 126.487C284.879 126.487 284.331 126.257 283.899 125.826C283.467 125.395 283.236 124.849 283.236 124.218C283.236 123.471 283.467 122.925 283.928 122.552C284.389 122.178 284.936 122.006 285.513 122.006C286.06 122.006 286.579 122.178 287.04 122.552C287.501 122.925 287.731 123.471 287.731 124.218C287.731 124.849 287.501 125.395 287.069 125.826C286.636 126.257 286.118 126.487 285.484 126.487ZM285.513 158.482C285.08 158.482 284.735 158.338 284.475 158.079C284.187 157.792 284.072 157.448 284.072 157.046V133.494C284.072 133.035 284.216 132.69 284.475 132.432C284.763 132.173 285.109 132.058 285.513 132.058C285.974 132.058 286.319 132.173 286.579 132.432C286.838 132.69 286.953 133.035 286.953 133.494V157.046C286.953 157.476 286.809 157.821 286.579 158.079C286.319 158.367 285.974 158.482 285.513 158.482Z" fill="white"/>
<path d="M298.134 158.482C297.701 158.482 297.356 158.338 297.096 158.079C296.808 157.792 296.693 157.448 296.693 157.046V133.494C296.693 133.035 296.837 132.69 297.096 132.432C297.384 132.173 297.73 132.058 298.134 132.058C298.595 132.058 298.941 132.173 299.2 132.432C299.459 132.69 299.575 133.035 299.575 133.494V157.046C299.575 157.476 299.43 157.821 299.2 158.079C298.941 158.367 298.595 158.482 298.134 158.482ZM297.644 142.34C297.846 140.273 298.393 138.434 299.344 136.855C300.295 135.246 301.505 134.011 302.975 133.092C304.473 132.202 306.116 131.742 307.931 131.742C309.17 131.742 310.121 131.886 310.784 132.173C311.447 132.46 311.735 132.977 311.562 133.724C311.476 134.212 311.245 134.5 310.871 134.586C310.525 134.672 310.092 134.701 309.574 134.615C309.084 134.528 308.508 134.5 307.902 134.5C306.289 134.5 304.848 134.844 303.58 135.505C302.312 136.165 301.332 137.113 300.612 138.291C299.891 139.468 299.546 140.818 299.546 142.34H297.644Z" fill="white"/>
<path d="M258.915 20.478V75.823C258.915 85.0711 255.111 93.4863 249.002 99.6039C242.893 105.693 234.45 109.484 225.142 109.484H166.241C162.899 109.484 160.19 106.784 160.19 103.452C160.19 100.121 162.899 97.4211 166.241 97.4211H225.171C231.107 97.4211 236.525 94.9798 240.444 91.0738C244.363 87.1677 246.812 81.7682 246.812 75.823V20.478C246.812 18.1803 245.861 16.0549 244.334 14.5327C242.806 13.0105 240.703 12.0628 238.369 12.0628C236.063 12.0628 161.717 12.0628 159.383 12.0628C157.078 12.0628 154.974 13.0105 153.418 14.5327C151.891 16.0549 150.94 18.1516 150.94 20.478V1.80941C153.505 0.660579 156.386 0 159.383 0C164.138 0 237.447 0 238.369 0C244.017 0 249.175 2.29767 252.892 6.00266C256.61 9.70764 258.915 14.82 258.915 20.478Z" fill="white"/>
<path d="M150.969 26.2796V75.823C150.969 85.0711 147.165 93.4863 141.056 99.6039C134.947 105.693 126.504 109.484 117.196 109.484H64.6639C55.385 109.484 46.9418 105.693 40.8039 99.6039C34.6949 93.515 30.8911 85.0998 30.8911 75.823V20.478C30.8911 14.8487 33.1964 9.70764 36.9137 6.00266C40.6599 2.29767 45.7892 0 51.466 0C57.114 0 62.2721 2.29767 65.9894 6.00266C69.6779 9.67892 71.9544 14.7051 72.0121 20.2482H115.957C119.3 20.2482 122.008 22.9479 122.008 26.2796C122.008 29.6112 119.3 32.3109 115.957 32.3109H65.9318C62.5891 32.3109 59.8804 29.6112 59.8804 26.2796V20.4492C59.8804 18.1516 58.9294 16.0549 57.4022 14.504C55.8749 12.9818 53.7713 12.034 51.4372 12.034C49.103 12.034 47.0283 12.9818 45.4722 14.504C43.9449 16.0262 42.994 18.1228 42.994 20.4492V75.823C42.994 81.7395 45.4434 87.139 49.3624 91.0738C53.2814 94.9798 58.6989 97.4211 64.6639 97.4211H117.196C123.132 97.4211 128.55 94.9798 132.498 91.0738C136.417 87.1677 138.866 81.7682 138.866 75.823V20.478C138.866 14.8487 141.171 9.70764 144.889 6.00266C146.646 4.25068 148.692 2.84336 150.969 1.80941V20.478V26.2796Z" fill="white"/>
<path d="M67.891 47.9351C71.1761 47.9351 73.856 50.6061 73.856 53.8803C73.856 57.1545 71.1761 59.8255 67.891 59.8255C64.6059 59.8255 61.926 57.1545 61.926 53.8803C61.926 50.5774 64.6059 47.9351 67.891 47.9351Z" fill="white"/>
<path d="M113.997 47.9351C117.283 47.9351 119.962 50.6061 119.962 53.8803C119.962 57.1545 117.283 59.8255 113.997 59.8255C110.712 59.8255 108.032 57.1545 108.032 53.8803C108.032 50.5774 110.712 47.9351 113.997 47.9351Z" fill="white"/>
<path d="M185.75 36.1595C189.035 36.1595 191.715 38.8306 191.715 42.1047C191.715 45.3789 189.035 48.05 185.75 48.05C182.465 48.05 179.785 45.3789 179.785 42.1047C179.785 38.8019 182.465 36.1595 185.75 36.1595Z" fill="white"/>
<path d="M210.821 36.1595C214.106 36.1595 216.786 38.8306 216.786 42.1047C216.786 45.3789 214.106 48.05 210.821 48.05C207.536 48.05 204.856 45.3789 204.856 42.1047C204.856 38.8019 207.536 36.1595 210.821 36.1595Z" fill="white"/>
<path d="M15.9932 67.6376C14.0337 67.3217 12.7081 65.4261 13.0251 63.4156C13.3421 61.3764 15.1863 59.9978 17.1747 60.3138L57.9498 66.776C59.9093 67.0919 61.2349 68.9875 60.9179 70.9979C60.6009 73.0371 58.7567 74.4157 56.7683 74.0998L15.9932 67.6376Z" fill="white"/>
<path d="M24.9261 87.455C22.9377 87.6273 21.18 86.1338 21.0071 84.0946C20.8053 82.0554 22.275 80.246 24.2345 80.0737L57.2004 77.058C59.1887 76.8857 60.9465 78.3792 61.1194 80.4184C61.3211 82.4575 59.8515 84.2669 57.892 84.4393L24.9261 87.455Z" fill="white"/>
<path d="M92.5291 78.0632C87.5439 74.2146 83.2503 71.5436 82.8757 65.9718C82.4434 59.567 90.2526 57.7289 92.5291 62.2668C94.8056 57.7289 102.615 59.567 102.183 65.9718C101.808 71.5723 97.5144 74.2146 92.5291 78.0632Z" fill="white"/>
<path d="M168.057 62.3817C168.057 62.3817 199.121 97.7083 230.185 62.3817" stroke="white" stroke-width="10" stroke-miterlimit="10" stroke-linecap="round" stroke-linejoin="round"/>
</svg>
